<svg width="523" height="72" viewBox="0 0 523 72" fill="none" xmlns="http://www.w3.org/2000/svg">
<path d="M0.5 70V0.181816H19.4545V54.7273H47.6818V70H0.5ZM65.4074 70.8182C62.0665 70.8182 59.1119 70.2727 56.5438 69.1818C53.9983 68.0682 51.9983 66.3864 50.5438 64.1364C49.0892 61.8864 48.3619 59.0227 48.3619 55.5455C48.3619 52.6818 48.8506 50.2386 49.8278 48.2159C50.8051 46.1705 52.1688 44.5 53.9188 43.2045C55.6688 41.9091 57.7028 40.9205 60.021 40.2386C62.3619 39.5568 64.8847 39.1136 67.5892 38.9091C70.521 38.6818 72.8733 38.4091 74.646 38.0909C76.4415 37.75 77.7369 37.2841 78.5324 36.6932C79.3278 36.0795 79.7256 35.2727 79.7256 34.2727V34.1364C79.7256 32.7727 79.2028 31.7273 78.1574 31C77.1119 30.2727 75.771 29.9091 74.1347 29.9091C72.3392 29.9091 70.8733 30.3068 69.7369 31.1023C68.6233 31.875 67.9528 33.0682 67.7256 34.6818H50.4074C50.6347 31.5 51.646 28.5682 53.4415 25.8864C55.2597 23.1818 57.9074 21.0227 61.3847 19.4091C64.8619 17.7727 69.2028 16.9545 74.4074 16.9545C78.1574 16.9545 81.521 17.3977 84.4983 18.2841C87.4756 19.1477 90.0097 20.3636 92.1006 21.9318C94.1915 23.4773 95.7824 25.2955 96.8733 27.3864C97.9869 29.4545 98.5438 31.7045 98.5438 34.1364V70H80.9528V62.6364H80.5438C79.4983 64.5909 78.2256 66.1705 76.7256 67.375C75.2483 68.5795 73.5551 69.4545 71.646 70C69.7597 70.5455 67.6801 70.8182 65.4074 70.8182ZM71.5438 58.9545C72.9756 58.9545 74.3165 58.6591 75.5665 58.0682C76.8392 57.4773 77.8733 56.625 78.6688 55.5114C79.4642 54.3977 79.8619 53.0455 79.8619 51.4545V47.0909C79.3619 47.2955 78.8278 47.4886 78.2597 47.6705C77.7142 47.8523 77.1233 48.0227 76.4869 48.1818C75.8733 48.3409 75.2142 48.4886 74.5097 48.625C73.8278 48.7614 73.1119 48.8864 72.3619 49C70.9074 49.2273 69.7142 49.6023 68.7824 50.125C67.8733 50.625 67.1915 51.25 66.7369 52C66.3051 52.7273 66.0892 53.5455 66.0892 54.4545C66.0892 55.9091 66.6006 57.0227 67.6233 57.7955C68.646 58.5682 69.9528 58.9545 71.5438 58.9545ZM102.735 70V17.6364H121.008V27.5909H121.553C122.508 23.9091 124.019 21.2159 126.088 19.5114C128.178 17.8068 130.622 16.9545 133.417 16.9545C134.235 16.9545 135.042 17.0227 135.838 17.1591C136.656 17.2727 137.44 17.4432 138.19 17.6705V33.7273C137.258 33.4091 136.11 33.1705 134.747 33.0114C133.383 32.8523 132.213 32.7727 131.235 32.7727C129.394 32.7727 127.735 33.1932 126.258 34.0341C124.803 34.8523 123.656 36.0114 122.815 37.5114C121.974 38.9886 121.553 40.7273 121.553 42.7273V70H102.735ZM151.714 70.8182C148.373 70.8182 145.418 70.2727 142.85 69.1818C140.305 68.0682 138.305 66.3864 136.85 64.1364C135.395 61.8864 134.668 59.0227 134.668 55.5455C134.668 52.6818 135.157 50.2386 136.134 48.2159C137.111 46.1705 138.475 44.5 140.225 43.2045C141.975 41.9091 144.009 40.9205 146.327 40.2386C148.668 39.5568 151.191 39.1136 153.895 38.9091C156.827 38.6818 159.18 38.4091 160.952 38.0909C162.748 37.75 164.043 37.2841 164.839 36.6932C165.634 36.0795 166.032 35.2727 166.032 34.2727V34.1364C166.032 32.7727 165.509 31.7273 164.464 31C163.418 30.2727 162.077 29.9091 160.441 29.9091C158.645 29.9091 157.18 30.3068 156.043 31.1023C154.93 31.875 154.259 33.0682 154.032 34.6818H136.714C136.941 31.5 137.952 28.5682 139.748 25.8864C141.566 23.1818 144.214 21.0227 147.691 19.4091C151.168 17.7727 155.509 16.9545 160.714 16.9545C164.464 16.9545 167.827 17.3977 170.805 18.2841C173.782 19.1477 176.316 20.3636 178.407 21.9318C180.498 23.4773 182.089 25.2955 183.18 27.3864C184.293 29.4545 184.85 31.7045 184.85 34.1364V70H167.259V62.6364H166.85C165.805 64.5909 164.532 66.1705 163.032 67.375C161.555 68.5795 159.861 69.4545 157.952 70C156.066 70.5455 153.986 70.8182 151.714 70.8182ZM157.85 58.9545C159.282 58.9545 160.623 58.6591 161.873 58.0682C163.145 57.4773 164.18 56.625 164.975 55.5114C165.77 54.3977 166.168 53.0455 166.168 51.4545V47.0909C165.668 47.2955 165.134 47.4886 164.566 47.6705C164.02 47.8523 163.43 48.0227 162.793 48.1818C162.18 48.3409 161.52 48.4886 160.816 48.625C160.134 48.7614 159.418 48.8864 158.668 49C157.214 49.2273 156.02 49.6023 155.089 50.125C154.18 50.625 153.498 51.25 153.043 52C152.611 52.7273 152.395 53.5455 152.395 54.4545C152.395 55.9091 152.907 57.0227 153.93 57.7955C154.952 58.5682 156.259 58.9545 157.85 58.9545ZM239.939 17.6364L222.348 70H200.53L182.939 17.6364H202.712L211.166 52.2727H211.712L220.166 17.6364H239.939ZM263.989 70.9545C258.398 70.9545 253.58 69.8864 249.534 67.75C245.511 65.5909 242.409 62.5 240.227 58.4773C238.068 54.4318 236.989 49.5909 236.989 43.9545C236.989 38.5455 238.08 33.8182 240.261 29.7727C242.443 25.7273 245.523 22.5795 249.5 20.3295C253.477 18.0795 258.17 16.9545 263.58 16.9545C267.534 16.9545 271.114 17.5682 274.318 18.7955C277.523 20.0227 280.261 21.8068 282.534 24.1477C284.807 26.4659 286.557 29.2841 287.784 32.6023C289.011 35.9205 289.625 39.6591 289.625 43.8182V48.1818H242.852V37.8182H272.307C272.284 36.3182 271.898 35 271.148 33.8636C270.42 32.7045 269.432 31.8068 268.182 31.1705C266.955 30.5114 265.557 30.1818 263.989 30.1818C262.466 30.1818 261.068 30.5114 259.795 31.1705C258.523 31.8068 257.5 32.6932 256.727 33.8295C255.977 34.9659 255.58 36.2955 255.534 37.8182V49C255.534 50.6818 255.886 52.1818 256.591 53.5C257.295 54.8182 258.307 55.8523 259.625 56.6023C260.943 57.3523 262.534 57.7273 264.398 57.7273C265.693 57.7273 266.875 57.5455 267.943 57.1818C269.034 56.8182 269.966 56.2955 270.739 55.6136C271.511 54.9091 272.08 54.0682 272.443 53.0909H289.625C289.034 56.7273 287.636 59.8864 285.432 62.5682C283.227 65.2273 280.307 67.2955 276.67 68.7727C273.057 70.2273 268.83 70.9545 263.989 70.9545ZM311.322 0.181816V70H292.504V0.181816H311.322Z" fill="#FE4242"/>
<path d="M376.247 0.181816V70H360.428L335.201 33.3182H334.792V70H315.837V0.181816H331.928L356.747 36.7273H357.292V0.181816H376.247ZM414.64 47.0909V17.6364H433.458V70H415.594V60.0455H415.049C413.913 63.3864 411.924 66 409.083 67.8864C406.242 69.75 402.867 70.6818 398.958 70.6818C395.299 70.6818 392.094 69.8409 389.344 68.1591C386.617 66.4773 384.492 64.1591 382.969 61.2045C381.469 58.25 380.708 54.8636 380.685 51.0455V17.6364H399.503V47.0909C399.526 49.6818 400.185 51.7159 401.481 53.1932C402.799 54.6705 404.64 55.4091 407.003 55.4091C408.572 55.4091 409.924 55.0795 411.06 54.4205C412.219 53.7386 413.106 52.7841 413.719 51.5568C414.356 50.3068 414.663 48.8182 414.64 47.0909ZM454.456 17.6364L462.093 33.8636L470.138 17.6364H488.82L474.774 43.8182L489.502 70H470.956L462.093 53.3636L453.502 70H434.684L449.547 43.8182L435.638 17.6364H454.456ZM521.938 17.6364V31.2727H487.438V17.6364H521.938ZM494.119 5.09091H512.938V53.1591C512.938 53.8864 513.062 54.5 513.312 55C513.562 55.4773 513.949 55.8409 514.472 56.0909C514.994 56.3182 515.665 56.4318 516.483 56.4318C517.051 56.4318 517.71 56.3636 518.46 56.2273C519.233 56.0909 519.801 55.9773 520.165 55.8864L522.892 69.1136C522.051 69.3636 520.847 69.6705 519.278 70.0341C517.733 70.3977 515.892 70.6364 513.756 70.75C509.438 70.9773 505.813 70.5341 502.881 69.4205C499.949 68.2841 497.744 66.5 496.267 64.0682C494.79 61.6364 494.074 58.5909 494.119 54.9318V5.09091Z" fill="#00F19A"/>
</svg>
